P3
# Created by GIMP version 2.10.28 PNM plug-in
16 16
255
158
158
158
156
156
156
101
101
101
116
116
116
130
130
130
132
132
132
130
130
130
131
131
131
130
130
130
123
123
123
142
142
142
157
157
157
165
165
165
164
164
164
123
123
123
101
101
101
158
158
158
154
154
154
97
97
97
115
115
115
127
127
127
130
130
130
141
141
141
158
158
158
138
138
138
122
122
122
132
132
132
153
153
153
148
148
148
186
186
186
106
106
106
50
50
50
124
124
124
155
155
155
93
93
93
111
111
111
122
122
122
121
121
121
140
140
140
179
179
179
198
198
198
149
149
149
131
131
131
132
132
132
144
144
144
134
134
134
57
57
57
90
90
90
99
99
99
154
154
154
92
92
92
115
115
115
120
120
120
127
127
127
146
146
146
186
186
186
200
200
200
206
206
206
148
148
148
114
114
114
175
175
175
75
75
75
73
73
73
150
150
150
105
105
105
159
159
159
94
94
94
131
131
131
117
117
117
130
130
130
157
157
157
174
174
174
182
182
182
189
189
189
186
186
186
192
192
192
202
202
202
60
60
60
133
133
133
157
157
157
108
108
108
161
161
161
92
92
92
132
132
132
141
141
141
132
132
132
137
137
137
127
127
127
129
129
129
176
176
176
195
195
195
180
180
180
136
136
136
89
89
89
158
158
158
156
156
156
108
108
108
162
162
162
91
91
91
111
111
111
156
156
156
119
119
119
81
81
81
76
76
76
153
153
153
181
181
181
162
162
162
130
130
130
61
61
61
129
129
129
163
163
163
156
156
156
104
104
104
163
163
163
95
95
95
115
115
115
126
126
126
72
72
72
65
65
65
148
148
148
156
156
156
182
182
182
175
175
175
88
88
88
69
69
69
153
153
153
155
155
155
149
149
149
96
96
96
167
167
167
99
99
99
123
123
123
87
87
87
74
74
74
115
115
115
151
151
151
134
134
134
163
163
163
106
106
106
91
91
91
102
102
102
154
154
154
149
149
149
159
159
159
80
80
80
165
165
165
106
106
106
98
98
98
71
71
71
89
89
89
125
125
125
139
139
139
164
164
164
164
164
164
129
129
129
96
96
96
131
131
131
149
149
149
162
162
162
200
200
200
84
84
84
166
166
166
99
99
99
86
86
86
99
99
99
123
123
123
73
73
73
130
130
130
145
145
145
156
156
156
100
100
100
94
94
94
148
148
148
146
146
146
188
188
188
210
210
210
82
82
82
167
167
167
91
91
91
93
93
93
125
125
125
83
83
83
59
59
59
102
102
102
139
139
139
142
142
142
61
61
61
102
102
102
152
152
152
142
142
142
202
202
202
207
207
207
96
96
96
163
163
163
91
91
91
84
84
84
113
113
113
86
86
86
54
54
54
92
92
92
137
137
137
170
170
170
146
146
146
102
102
102
133
133
133
122
122
122
198
198
198
109
109
109
119
119
119
166
166
166
71
71
71
68
68
68
94
94
94
106
106
106
66
66
66
111
111
111
140
140
140
163
163
163
203
203
203
147
147
147
141
141
141
169
169
169
163
163
163
100
100
100
118
118
118
164
164
164
71
71
71
55
55
55
87
87
87
76
76
76
87
87
87
123
123
123
140
140
140
151
151
151
190
190
190
177
177
177
114
114
114
174
174
174
109
109
109
90
90
90
136
136
136
162
162
162
59
59
59
71
71
71
79
79
79
69
69
69
108
108
108
134
134
134
142
142
142
146
146
146
172
172
172
193
193
193
103
103
103
123
123
123
89
89
89
85
85
85
